<svg width="128" height="128" viewBox="0 0 128 128" fill="none" xmlns="http://www.w3.org/2000/svg" role="img" aria-labelledby="title desc">
  <title id="title">Maqam logo</title>
  <desc id="desc">A geometric M mark built from interlocking frames and a protected evidence core.</desc>
  <rect width="128" height="128" rx="30" fill="#0C1110"/>
  <path d="M27 91V37h17l20 28 20-28h17v54H84V62L66 88h-4L44 62v29H27Z" fill="#F4F7F3"/>
  <path d="M44 37h20l-8 12H44V37Z" fill="#48C7FF"/>
  <path d="M84 37h17v17H90l-6-17Z" fill="#84E07F"/>
  <path d="M64 65 84 37h17L70 80h-12L27 37h17l20 28Z" fill="url(#g)" fill-opacity=".62"/>
  <circle cx="64" cy="72" r="9" fill="#0C1110" stroke="#84E07F" stroke-width="4"/>
  <path d="M35 100h58" stroke="#48C7FF" stroke-width="5" stroke-linecap="round"/>
  <defs>
    <linearGradient id="g" x1="27" y1="37" x2="101" y2="80" gradientUnits="userSpaceOnUse">
      <stop stop-color="#48C7FF"/>
      <stop offset="1" stop-color="#84E07F"/>
    </linearGradient>
  </defs>
</svg>
